# xmcd CD database file
#
# Track frame offsets:
#	150
#	14469
#	29126
#	43450
#	59063
#	74707
#	88589
#	101740
#	112588
#	141688
#	174754
#	200380
#	219498
#	241147
#
# Disc length: 3914 seconds
#
# Revision: 0
# Processed by: cddbd v1.5.2PL0 Copyright (c) Steve Scherf et al.
# Submitted via: CDex 1.51
#
DISCID=d50f480e
DTITLE=Wynton Kelly - Nine Classic Albums - CD1
DYEAR=2015
DGENRE=Jazz
TTITLE0=Cherokee
TTITLE1=Crazy He Calls Me
TTITLE2=Blue Moon
TTITLE3=Born to Be Blue
TTITLE4=Moonlight in Vermont
TTITLE5=There Will Never Be Another You
TTITLE6=I Found a New Baby
TTITLE7=Good-Bye
TTITLE8=Out of the Past
TTITLE9=Reunion
TTITLE10=Venetian Breez
TTITLE11=Hymn to the Orient
TTITLE12=Namely You
TTITLE13=Blues on Down
EXTD=YEAR: 2015
EXTT0=
EXTT1=
EXTT2=
EXTT3=
EXTT4=
EXTT5=
EXTT6=
EXTT7=
EXTT8=
EXTT9=
EXTT10=
EXTT11=
EXTT12=
EXTT13=
PLAYORDER=
